 http://img21.imageshack.us/img21/3056/thegoldencompass2007.jpg

Country.......: USA, United Kingdom
Genre.........: Fantasy, Adventure
Date release..: 27.11.2007 [World]
Director......: Chris Weitz
Writers.......: Chris Weitz, Philip Pullman
Duration......: 113 min.
More..........: http://www.imdb.com/title/tt0385752
Trailer.......: http://www.imdb.com/video/imdb/vi2813395225
Trailer.......:

Pilot :
In a parallel universe, young Lyra Belacqua journeys to the far North to save her best friend and other kidnapped children from terrible experiments by a mysterious organization. 

Cats :
Nicole Kidman   	 ...  	Marisa Coulter
Daniel Craig 	... 	Lord Asriel
Dakota Blue Richards 	... 	Lyra Silvertongue Belacqua
Ben Walker 	... 	Roger
Freddie Highmore 	... 	Pantalaimon (voice)
Ian McKellen 	... 	Iorek Byrnison (voice)
Eva Green 	... 	Serafina Pekkala
Jim Carter 	... 	John Faa
Tom Courtenay 	... 	Farder Coram
Ian McShane 	... 	Ragnar Sturlusson (voice)
Sam Elliott 	... 	Lee Scoresby
Christopher Lee 	... 	First High Councilor
Kristin Scott Thomas 	... 	Stelmaria (voice)
Edward de Souza 	... 	Second High Councilor
Kathy Bates 	... 	Hester (voice) 

Data Technical :
!!! SAMPLE !!!
Audio.....: Dubbing Polish
Subtitles.: None
Format                           : AVI
Format/Info                      : Audio Video Interleave
File size                        : 700 MiB
Duration                         : 1h 53mn
Overall bit rate                 : 864 Kbps
Writing application              : VirtualDubMod 1.5.10.2 (build 2540/release)
Writing library                  : VirtualDubMod build 2540/release
Video
ID                               : 0
Format                           : MPEG-4 Visual
Format profile                   : Advanced Simple@L5
Format settings, BVOP            : Yes
Format settings, QPel            : No
Format settings, GMC             : No warppoints
Format settings, Matrix          : Default (H.263)
Muxing mode                      : Packed bitstream
Codec ID                         : XVID
Codec ID/Hint                    : XviD
Duration                         : 1h 53mn
Bit rate                         : 750 Kbps
Width                            : 656 pixels
Height                           : 272 pixels
Display aspect ratio             : 2.40:1
Frame rate                       : 23.976 fps
Color space                      : YUV
Chroma subsampling               : 4:2:0
Bit depth                        : 8 bits
Scan type                        : Progressive
Bits/(Pixel*Frame)               : 0.175
Stream size                      : 608 MiB (87%)
Writing library                  : XviD 1.1.2 (UTC 2006-11-01)
Audio
ID                               : 1
Format                           : MPEG Audio
Format version                   : Version 1
Format profile                   : Layer 3
Mode                             : Joint stereo
Mode extension                   : MS Stereo
Codec ID                         : 55
Codec ID/Hint                    : MP3
Duration                         : 1h 45mn
Bit rate mode                    : Constant
Bit rate                         : 112 Kbps
Channel(s)                       : 2 channels
Sampling rate                    : 48.0 KHz
Stream size                      : 84.6 MiB (12%)
Alignment                        : Aligned on interleaves
Interleave, duration             : 45 ms (1.07 video frame)
Interleave, preload duration     : 504 ms

Screen : 
http://img96.imageshack.us/img96/4821/thegoldencompass2007s5.jpg 
http://img135.imageshack.us/img135/9023/thegoldencompass2007s1.jpg 
http://img716.imageshack.us/img716/7555/thegoldencompass2007s2.jpg 
http://img8.imageshack.us/img8/9912/thegoldencompass2007s3.jpg 
http://img339.imageshack.us/img339/756/thegoldencompass2007s4.jpg